<?xml version="1.0" standalone="no"?>
<!DOCTYPE svg PUBLIC "-//W3C//DTD SVG 20010904//EN"
 "http://www.w3.org/TR/2001/REC-SVG-20010904/DTD/svg10.dtd">
<svg version="1.0" xmlns="http://www.w3.org/2000/svg"
 width="134.000000pt" height="132.000000pt" viewBox="0 0 134.000000 132.000000"
 preserveAspectRatio="xMidYMid meet">

<g transform="translate(0.000000,132.000000) scale(0.100000,-0.100000)"
fill="#000000" stroke="none">
<path d="M1 1058 c0 -235 2 -258 14 -218 30 103 36 118 56 141 11 13 29 39 41
59 26 43 114 131 168 166 22 15 40 30 40 35 0 8 140 64 180 72 14 2 -93 5
-237 6 l-263 1 1 -262z"/>
<path d="M836 1310 c45 -9 166 -58 174 -70 3 -4 27 -24 53 -44 72 -55 129
-115 167 -176 19 -30 40 -61 47 -68 14 -15 39 -99 52 -173 6 -38 9 32 10 244
l1 297 -272 -1 c-170 -1 -258 -4 -232 -9z"/>
<path d="M516 1184 c-49 -12 -68 -23 -106 -62 -26 -26 -49 -58 -53 -71 l-6
-23 72 6 c89 9 117 15 117 28 0 5 11 24 25 42 14 18 25 38 25 43 0 6 7 16 15
23 39 32 7 37 -89 14z"/>
<path d="M750 1195 c0 -9 43 -81 59 -98 49 -53 54 -55 122 -62 39 -4 72 -5 75
-2 6 6 -26 87 -35 87 -3 0 -19 11 -35 25 -15 13 -52 31 -81 40 -51 14 -105 20
-105 10z"/>
<path d="M549 988 c-7 -12 -18 -29 -26 -36 -7 -7 -13 -22 -13 -33 0 -10 -4
-19 -9 -19 -12 0 -42 -126 -44 -186 l-2 -49 100 0 100 0 0 170 0 170 -47 3
c-40 3 -48 0 -59 -20z"/>
<path d="M704 997 c-2 -7 -3 -85 -2 -172 l3 -160 105 0 105 0 -3 40 c-7 99
-52 255 -83 286 -23 23 -116 28 -125 6z"/>
<path d="M388 991 c-58 -8 -64 -14 -78 -71 -16 -65 -40 -242 -34 -252 5 -8
134 -12 134 -3 0 39 35 216 54 268 l23 67 -26 -1 c-14 -1 -47 -5 -73 -8z"/>
<path d="M880 996 c0 -3 6 -23 14 -43 26 -72 37 -118 49 -203 l12 -85 65 0 65
0 -4 75 c-4 93 -36 221 -58 238 -9 6 -31 12 -49 12 -17 0 -46 3 -63 6 -17 4
-31 4 -31 0z"/>
<path d="M237 961 c-17 -4 -35 -18 -45 -36 -9 -16 -22 -35 -29 -42 -16 -17
-45 -153 -41 -189 3 -25 8 -29 37 -32 72 -7 77 -1 85 89 4 44 13 108 21 142 8
34 11 64 7 68 -4 3 -20 3 -35 0z"/>
<path d="M1084 954 c4 -10 10 -35 13 -54 4 -19 10 -37 14 -40 5 -3 11 -39 14
-80 10 -124 8 -120 65 -120 l50 0 0 49 c0 62 -44 198 -74 228 -13 13 -38 26
-56 30 -30 5 -33 4 -26 -13z"/>
<path d="M123 613 c-15 -38 23 -199 53 -231 7 -6 15 -20 19 -31 6 -19 45 -41
74 -41 17 0 17 3 0 70 -10 38 -21 108 -25 155 -4 50 -11 85 -18 86 -75 7 -98
5 -103 -8z"/>
<path d="M328 622 c-66 -3 -63 3 -48 -107 13 -90 40 -197 54 -211 6 -7 41 -15
79 -19 l68 -7 -21 54 c-11 29 -28 106 -37 170 -9 64 -21 118 -27 120 -6 2 -37
2 -68 0z"/>
<path d="M765 621 l-60 -6 0 -170 0 -170 49 -3 c81 -5 90 0 113 70 25 73 40
140 49 221 l6 57 -28 0 c-16 0 -38 2 -49 4 -11 2 -47 0 -80 -3z"/>
<path d="M1146 616 c-9 -7 -16 -41 -19 -100 -4 -49 -11 -92 -16 -95 -8 -5 -30
-78 -31 -103 0 -19 51 -5 78 20 48 43 113 281 78 283 -6 0 -25 2 -43 3 -18 2
-39 -1 -47 -8z"/>
<path d="M454 549 c8 -85 35 -199 47 -199 5 0 9 -6 9 -13 0 -8 11 -26 23 -41
21 -24 30 -27 73 -24 l49 3 3 173 2 172 -106 0 -107 0 7 -71z"/>
<path d="M950 578 c0 -63 -18 -166 -40 -229 -11 -30 -20 -59 -20 -63 0 -11
124 5 138 18 16 16 48 151 56 244 l7 72 -70 0 -71 0 0 -42z"/>
<path d="M1326 518 c-10 -63 -36 -146 -49 -160 -18 -19 -67 -96 -67 -105 0 -5
-18 -25 -40 -47 -22 -21 -40 -43 -40 -47 0 -5 -6 -9 -13 -9 -6 0 -32 -19 -57
-42 -27 -25 -77 -54 -125 -74 l-80 -34 243 0 242 0 0 280 c0 154 -2 280 -4
280 -2 0 -6 -19 -10 -42z"/>
<path d="M1 258 l-1 -258 238 0 237 1 -75 29 c-41 16 -79 35 -85 42 -5 7 -28
26 -50 43 -65 48 -135 118 -151 151 -8 17 -23 40 -33 51 -28 29 -43 62 -62
133 l-18 65 0 -257z"/>
<path d="M360 230 c0 -5 3 -10 8 -10 4 0 15 -18 24 -39 14 -33 26 -42 70 -59
29 -11 73 -23 97 -27 l43 -7 -28 48 c-15 27 -36 57 -46 67 -27 27 -168 50
-168 27z"/>
<path d="M908 230 c-34 -6 -87 -44 -88 -63 0 -4 -11 -20 -25 -35 -14 -15 -25
-30 -25 -34 0 -12 91 4 135 23 40 18 64 40 84 78 23 42 12 46 -81 31z"/>
</g>
</svg>
